<?xml version="1.0" standalone="no"?>
<!DOCTYPE svg PUBLIC "-//W3C//DTD SVG 20010904//EN"
 "http://www.w3.org/TR/2001/REC-SVG-20010904/DTD/svg10.dtd">
<svg version="1.0" xmlns="http://www.w3.org/2000/svg"
 width="556.000000pt" height="556.000000pt" viewBox="0 0 556.000000 556.000000"
 preserveAspectRatio="xMidYMid meet">
<metadata>
Created by potrace 1.11, written by Peter Selinger 2001-2013
</metadata>
<g transform="translate(0.000000,556.000000) scale(0.100000,-0.100000)"
fill="#000000" stroke="none">
<path d="M960 5324 c-771 -194 -898 -228 -920 -250 l-25 -24 -3 -2473 c-1
-1359 0 -2483 3 -2495 9 -36 53 -72 88 -72 17 0 426 101 909 225 l878 226 877
-226 c483 -124 888 -225 900 -225 30 0 1811 459 1832 472 49 30 46 -110 49
2488 2 1339 0 2455 -3 2479 -8 56 -50 101 -94 101 -17 0 -426 -99 -909 -219
l-877 -220 -875 219 c-481 121 -888 219 -905 219 -16 -1 -433 -102 -925 -225z
m1825 -96 l890 -222 883 221 882 221 -2 -2441 -3 -2441 -888 -228 -888 -229
-888 229 -889 228 -789 -203 c-433 -111 -830 -213 -881 -227 l-92 -24 0 2448
0 2448 878 220 c482 121 882 221 887 221 6 1 411 -98 900 -221z"/>
<path d="M5073 4057 l-163 -50 -2 -719 -3 -718 -330 645 c-248 486 -333 644
-345 641 -8 -3 -81 -25 -162 -51 l-148 -46 0 -1154 0 -1154 28 9 c15 5 87 27
160 50 l132 41 0 719 c0 396 3 720 8 720 4 0 155 -291 335 -645 181 -355 330
-645 331 -645 7 0 318 99 322 102 2 3 3 523 2 1155 l-3 1151 -162 -51z"/>
<path d="M990 3886 l-645 -162 -3 -1107 c-2 -882 0 -1107 10 -1107 7 0 306 74
663 163 l650 163 3 223 c2 209 1 222 -15 217 -28 -8 -862 -216 -868 -216 -3 0
-5 100 -5 223 l0 222 443 111 442 110 3 221 2 221 -432 -109 c-238 -60 -439
-109 -446 -109 -10 0 -12 48 -10 222 l3 222 443 110 442 111 0 217 c0 201 -1
218 -17 217 -10 0 -308 -74 -663 -163z"/>
<path d="M2557 2838 c-119 -298 -215 -543 -213 -545 2 -3 100 44 217 102 l212
107 225 -224 c124 -122 222 -216 220 -208 -79 244 -432 1297 -437 1303 -4 4
-105 -237 -224 -535z"/>
</g>
</svg>
